<svg xmlns="http://www.w3.org/2000/svg" width="1200" height="20" viewBox="0 0 1200 20" preserveAspectRatio="none"><path d="M0,0 H1200 V15.02634060523768 L1200,15.02634060523768 L1178,13 L1156,13 L1134,9 L1112,8 L1090,16.887206674966592 L1068,14 L1046,11 L1024,9 L1002,10 L980,17.807789923999362 L958,12 L936,14 L914,14 L892,13 L870,19.42016279856682 L848,9 L826,9 L804,8 L782,11 L760,11.842878461742252 L738,8 L716,14 L694,11 L672,10 L650,14.267762780779861 L628,8 L606,13 L584,12 L562,14 L540,14.982741477425556 L518,9 L496,14 L474,12 L452,13 L430,15.672498705178732 L408,9 L386,14 L364,14 L342,10 L320,17.00648880051751 L298,8 L276,13 L254,9 L232,10 L210,16.775667341787212 L188,14 L166,12 L144,12 L122,9 L100,17.256798626974597 L78,8 L56,10 L34,8 L12,9 V0 Z" fill="#fff"/></svg>