<svg xmlns="http://www.w3.org/2000/svg" width="1200" height="30" viewBox="0 0 1200 30" preserveAspectRatio="none"><path d="M0,0 H1200 V15.539414286864648 L1200,15.539414286864648 L1178,15 L1156,21 L1134,10 L1112,13 L1090,23.64878609946407 L1068,20 L1046,17 L1024,13 L1002,17 L980,27.62773204065288 L958,10 L936,20 L914,10 L892,15 L870,19.25741553504831 L848,20 L826,17 L804,20 L782,14 L760,21.03793597223141 L738,20 L716,17 L694,14 L672,13 L650,23.67179287768518 L628,10 L606,12 L584,17 L562,11 L540,15.121244192179873 L518,12 L496,14 L474,19 L452,9 L430,23.375924004416877 L408,20 L386,11 L364,11 L342,10 L320,15.586869002593154 L298,20 L276,12 L254,12 L232,17 L210,20.85021949040248 L188,20 L166,21 L144,13 L122,9 L100,23.762942076550303 L78,11 L56,20 L34,19 L12,14 V0 Z" fill="#fff"/></svg>