<svg xmlns="http://www.w3.org/2000/svg" width="600" height="600"><circle cx="309" cy="561" r="21.3" fill="rgb(120,86,46)" opacity="0.044"/><circle cx="351" cy="173" r="24.7" fill="rgb(120,86,46)" opacity="0.045"/><circle cx="156" cy="403" r="25.0" fill="rgb(120,86,46)" opacity="0.021"/><circle cx="194" cy="324" r="32.6" fill="rgb(120,86,46)" opacity="0.020"/><circle cx="283" cy="399" r="13.1" fill="rgb(120,86,46)" opacity="0.036"/><circle cx="574" cy="179" r="17.4" fill="rgb(120,86,46)" opacity="0.038"/><circle cx="90" cy="254" r="24.3" fill="rgb(120,86,46)" opacity="0.035"/><circle cx="454" cy="563" r="11.5" fill="rgb(120,86,46)" opacity="0.020"/><circle cx="498" cy="409" r="25.6" fill="rgb(120,86,46)" opacity="0.017"/><circle cx="112" cy="241" r="21.2" fill="rgb(120,86,46)" opacity="0.026"/><circle cx="216" cy="124" r="27.1" fill="rgb(120,86,46)" opacity="0.023"/><circle cx="590" cy="512" r="18.4" fill="rgb(120,86,46)" opacity="0.035"/><circle cx="249" cy="161" r="31.0" fill="rgb(120,86,46)" opacity="0.019"/><circle cx="130" cy="7" r="19.0" fill="rgb(120,86,46)" opacity="0.047"/><circle cx="281" cy="6" r="13.1" fill="rgb(120,86,46)" opacity="0.052"/><circle cx="580" cy="462" r="24.6" fill="rgb(120,86,46)" opacity="0.044"/><circle cx="521" cy="460" r="8.6" fill="rgb(120,86,46)" opacity="0.050"/><circle cx="410" cy="229" r="12.3" fill="rgb(120,86,46)" opacity="0.043"/><circle cx="268" cy="198" r="14.6" fill="rgb(120,86,46)" opacity="0.041"/><circle cx="305" cy="290" r="28.1" fill="rgb(120,86,46)" opacity="0.036"/><circle cx="97" cy="145" r="24.2" fill="rgb(120,86,46)" opacity="0.055"/><circle cx="464" cy="287" r="17.5" fill="rgb(120,86,46)" opacity="0.057"/><circle cx="573" cy="347" r="26.2" fill="rgb(120,86,46)" opacity="0.035"/><circle cx="53" cy="10" r="20.6" fill="rgb(120,86,46)" opacity="0.021"/><circle cx="297" cy="200" r="15.0" fill="rgb(120,86,46)" opacity="0.024"/><circle cx="326" cy="226" r="18.9" fill="rgb(120,86,46)" opacity="0.047"/></svg>